# xmcd CD Database Entry
#
# Track frame offsets:
# 150
# 16502
# 36650
# 54082
# 70572
# 104195
# 125882
# 140095
# 166035
# 182965
# 203317
# 230322
# 251695
# 267967
#
# Disc length: 3859 seconds
#
# Revision: 1
# Processed by: cddbd v1.4PL0 Copyright (c) Steve Scherf et al.
# Submitted via: tcd 2.0b
#
DISCID=c10f110e
DTITLE=Mac Gayden - Nirvana Blues
DYEAR=1995
DGENRE=Bluesrock
TTITLE0=Crazy Mama
TTITLE1=Freedom Road
TTITLE2=Shake Something Loose
TTITLE3=Love Is A Poor Boys Gold
TTITLE4=Nirvana Blues
TTITLE5=Morning Glory
TTITLE6=Caney Fork River Daze
TTITLE7=Black Like Me
TTITLE8=Goin Down The Road
TTITLE9=Reconsider Me
TTITLE10=Sunnyside
TTITLE11=Satisfied
TTITLE12=Preacher Ron
TTITLE13=Rebel Wings
EXTD=Winter Harvest Entertainment, Inc., Nashville
EXTT0=
EXTT1=
EXTT2=
EXTT3=
EXTT4=
EXTT5=
EXTT6=
EXTT7=
EXTT8=
EXTT9=
EXTT10=
EXTT11=
EXTT12=
EXTT13=
PLAYORDER=
